<svg xmlns="http://www.w3.org/2000/svg" viewBox="0 0 64 80" x="0px" y="0px"><g><path d="M42.627,38H40.3a15.78,15.78,0,0,1,3.607,9H47A10.616,10.616,0,0,0,42.627,38Z"/><path d="M16,28a7,7,0,0,0,4.177,6.408,20.94,20.94,0,0,1,6.259-12.5A7,7,0,0,0,16,28Z"/><path d="M41,30a7,7,0,0,0,0,14c.107,0,.206-.011.31-.015a14.1,14.1,0,0,0-4-6.2A1,1,0,0,1,37.938,36h5a1,1,0,0,1,.554.168,11.98,11.98,0,0,1,3.749,3.946A6.955,6.955,0,0,0,41,30Z"/><path d="M6,28A17.019,17.019,0,0,1,23,11v2a14.991,14.991,0,0,0-2.16,29.826A20.877,20.877,0,0,1,20,37c0-.17.021-.335.026-.5a9,9,0,1,1,7.988-15.967,20.869,20.869,0,0,1,9.9-4.276,18.99,18.99,0,1,0-15.39,30.723,21.024,21.024,0,0,1-.961-2.049A17.013,17.013,0,0,1,6,28ZM25,11h2v2H25Z"/><path d="M41,18A18.964,18.964,0,0,0,22.986,43H23v.037A18.994,18.994,0,1,0,41,18Zm7.927,30.142a1,1,0,0,1-.989.858h-5a1,1,0,0,1-1-1,13.141,13.141,0,0,0-.165-2.038c-.253.021-.509.038-.773.038a9.019,9.019,0,1,1,7.253-3.684A13.679,13.679,0,0,1,48.927,48.142ZM37,26V24h2v2ZM52,37A11.013,11.013,0,0,0,41,26V24A13.015,13.015,0,0,1,54,37ZM41,22a15,15,0,0,0,0,30v2A17,17,0,1,1,58,37H56A15.017,15.017,0,0,0,41,22ZM58,41H56V39h2Z"/></g><text x="0" y="79" fill="#000000" font-size="5px" font-weight="bold" font-family="'Helvetica Neue', Helvetica, Arial-Unicode, Arial, Sans-serif">Created by Smalllike</text><text x="0" y="84" fill="#000000" font-size="5px" font-weight="bold" font-family="'Helvetica Neue', Helvetica, Arial-Unicode, Arial, Sans-serif">from the Noun Project</text></svg>