<svg xmlns:dc="http://purl.org/dc/elements/1.1/" xmlns:cc="http://creativecommons.org/ns#" xmlns:rdf="http://www.w3.org/1999/02/22-rdf-syntax-ns#" xmlns:svg="http://www.w3.org/2000/svg" xmlns="http://www.w3.org/2000/svg" xmlns:sodipodi="http://sodipodi.sourceforge.net/DTD/sodipodi-0.dtd" xmlns:inkscape="http://www.inkscape.org/namespaces/inkscape" version="1.1" x="0px" y="0px" viewBox="0 0 100 125"><g transform="translate(0,-952.36218)"><rect y="1117.3622" x="200" height="80" width="0" style="opacity:1;color:#000000;fill:#000000;stroke:#ff0000;stroke-width:0;stroke-linecap:butt;stroke-linejoin:miter;stroke-miterlimit:4;stroke-opacity:1;stroke-dasharray:none;stroke-dashoffset:0;marker:none;visibility:visible;display:inline;overflow:visible;enable-background:accumulate"/><path style="font-size:medium;font-style:normal;font-variant:normal;font-weight:normal;font-stretch:normal;text-indent:0;text-align:start;text-decoration:none;line-height:normal;letter-spacing:normal;word-spacing:normal;text-transform:none;direction:ltr;block-progression:tb;writing-mode:lr-tb;text-anchor:start;baseline-shift:baseline;opacity:1;color:#000000;fill:#000000;fill-opacity:1;stroke:none;stroke-width:1.99999975999999990;marker:none;visibility:visible;display:inline;overflow:visible;enable-background:accumulate;font-family:Sans;-inkscape-font-specification:Sans" d="m 32,990.125 c -3.776875,0.83776 -6.916372,1.95201 -9.1875,3.28125 -2.271128,1.32924 -3.8125,2.96483 -3.8125,5 l 0,25.90625 c 0,1.699 1.126542,3.1585 2.78125,4.3437 1.654708,1.1853 3.908586,2.1922 6.6875,3.0313 5.557828,1.6783 13.140217,2.6875 21.53125,2.6875 8.391033,0 15.973422,-1.0092 21.53125,-2.6875 2.778914,-0.8391 5.032792,-1.846 6.6875,-3.0313 C 79.873458,1027.471 81,1026.0115 81,1024.3125 l -2,0 c 0,0.8103 -0.564083,1.735 -1.9375,2.7187 -1.373417,0.9838 -3.481414,1.9205 -6.125,2.7188 -5.287172,1.5965 -12.708533,2.625 -20.9375,2.625 -8.228967,0 -15.650328,-1.0285 -20.9375,-2.625 -2.643586,-0.7983 -4.751583,-1.735 -6.125,-2.7188 C 21.564083,1026.0475 21,1025.1228 21,1024.3125 l 0,-25.90625 c 0,-0.97064 0.85982,-2.1201 2.84375,-3.28125 1.98393,-1.16115 4.949804,-2.22297 8.59375,-3.03125 L 32,990.125 z m 36,0 -0.4375,1.96875 c 3.643946,0.80828 6.60982,1.8701 8.59375,3.03125 C 78.14018,996.28615 79,997.43561 79,998.40625 l 0,19.96875 2,0 0,-19.96875 c 0,-2.03517 -1.541372,-3.67076 -3.8125,-5 C 74.916372,992.07701 71.776875,990.96276 68,990.125 z"/><path style="font-size:medium;font-style:normal;font-variant:normal;font-weight:normal;font-stretch:normal;text-indent:0;text-align:start;text-decoration:none;line-height:normal;letter-spacing:normal;word-spacing:normal;text-transform:none;direction:ltr;block-progression:tb;writing-mode:lr-tb;text-anchor:start;baseline-shift:baseline;opacity:1;color:#000000;fill:#000000;fill-opacity:1;stroke:none;stroke-width:1.99999975999999990;marker:none;visibility:visible;display:inline;overflow:visible;enable-background:accumulate;font-family:Sans;-inkscape-font-specification:Sans" d="m 49,1012.375 0,21 2,0 0,-21 -2,0 z"/><path style="font-size:medium;font-style:normal;font-variant:normal;font-weight:normal;font-stretch:normal;text-indent:0;text-align:start;text-decoration:none;line-height:normal;letter-spacing:normal;word-spacing:normal;text-transform:none;direction:ltr;block-progression:tb;writing-mode:lr-tb;text-anchor:start;baseline-shift:baseline;opacity:1;color:#000000;fill:#000000;fill-opacity:1;stroke:none;stroke-width:1.99999975999999990;marker:none;visibility:visible;display:inline;overflow:visible;enable-background:accumulate;font-family:Sans;-inkscape-font-specification:Sans" d="m 31,1010.375 0,21.375 2,0 0,-21.375 -2,0 z"/><path style="font-size:medium;font-style:normal;font-variant:normal;font-weight:normal;font-stretch:normal;text-indent:0;text-align:start;text-decoration:none;line-height:normal;letter-spacing:normal;word-spacing:normal;text-transform:none;direction:ltr;block-progression:tb;writing-mode:lr-tb;text-anchor:start;baseline-shift:baseline;opacity:1;color:#000000;fill:#000000;fill-opacity:1;stroke:none;stroke-width:1.99999975999999990;marker:none;visibility:visible;display:inline;overflow:visible;enable-background:accumulate;font-family:Sans;-inkscape-font-specification:Sans" d="m 17.8125,969.9375 -0.71875,0.71875 -2.8125,2.8125 -0.71875,0.71875 0.75,0.6875 21.65625,20.90625 c 0.130973,1.47307 0.823846,3.01135 2.125,4.31255 1.081721,1.0816 2.330797,1.817 3.5625,2.125 1.231703,0.3079 2.570047,0.1799 3.46875,-0.7188 0.898736,-0.8987 1.026678,-2.23703 0.71875,-3.46875 -0.307928,-1.23172 -1.043292,-2.48074 -2.125,-3.5625 -1.283611,-1.2836 -2.763782,-1.97812 -4.21875,-2.125 L 18.53125,970.65625 17.8125,969.9375 z m -0.03125,2.84375 20.40625,21.125 0.3125,0.3125 0.4375,0 c 0.838084,-0.0264 2.220848,0.5021 3.375,1.65625 0.852426,0.85246 1.394667,1.82867 1.59375,2.625 0.199083,0.79633 0.07424,1.30077 -0.1875,1.5625 -0.261793,0.2618 -0.766201,0.4178 -1.5625,0.2187 -0.796299,-0.199 -1.772563,-0.77253 -2.625,-1.62495 -1.154037,-1.15403 -1.713495,-2.53619 -1.6875,-3.375 l 0,-0.4375 -0.3125,-0.3125 -21.09375,-20.375 1.34375,-1.375 z"/><path style="font-size:medium;font-style:normal;font-variant:normal;font-weight:normal;font-stretch:normal;text-indent:0;text-align:start;text-decoration:none;line-height:normal;letter-spacing:normal;word-spacing:normal;text-transform:none;direction:ltr;block-progression:tb;writing-mode:lr-tb;text-anchor:start;baseline-shift:baseline;opacity:1;color:#000000;fill:#000000;fill-opacity:1;stroke:none;stroke-width:1.99999975999999990;marker:none;visibility:visible;display:inline;overflow:visible;enable-background:accumulate;font-family:Sans;-inkscape-font-specification:Sans" d="M 82.1875,969.9375 81.46875,970.65625 60.5,992.34375 c -1.454968,0.14688 -2.935139,0.8414 -4.21875,2.125 -1.081707,1.08176 -1.817071,2.33078 -2.125,3.5625 -0.307929,1.23172 -0.179987,2.57005 0.71875,3.46875 0.898703,0.8987 2.237047,1.0267 3.46875,0.7188 1.231703,-0.308 2.480779,-1.0434 3.5625,-2.125 1.301154,-1.3012 1.994027,-2.83948 2.125,-4.31255 L 85.6875,974.875 l 0.75,-0.6875 -0.71875,-0.71875 -2.8125,-2.8125 -0.71875,-0.71875 z m 0.03125,2.84375 1.34375,1.375 -21.09375,20.375 -0.3125,0.3125 0,0.4375 c 0.026,0.83881 -0.533463,2.22097 -1.6875,3.375 -0.852437,0.85242 -1.828701,1.42595 -2.625,1.62495 -0.796299,0.1991 -1.300707,0.043 -1.5625,-0.2187 -0.261743,-0.26173 -0.386582,-0.76617 -0.1875,-1.5625 0.199082,-0.79633 0.741325,-1.77254 1.59375,-2.625 1.154152,-1.15415 2.536916,-1.68261 3.375,-1.65625 l 0.4375,0 0.3125,-0.3125 20.40625,-21.125 z"/><path style="font-size:medium;font-style:normal;font-variant:normal;font-weight:normal;font-stretch:normal;text-indent:0;text-align:start;text-decoration:none;line-height:normal;letter-spacing:normal;word-spacing:normal;text-transform:none;direction:ltr;block-progression:tb;writing-mode:lr-tb;text-anchor:start;baseline-shift:baseline;opacity:1;color:#000000;fill:#000000;fill-opacity:1;stroke:none;stroke-width:1.99999975999999990;marker:none;visibility:visible;display:inline;overflow:visible;enable-background:accumulate;font-family:Sans;-inkscape-font-specification:Sans" d="m 21,998.5 -2,0.25 c 0.2103,1.6367 1.421793,2.9931 3.125,4.125 1.703207,1.1319 3.989162,2.0991 6.75,2.9062 5.521676,1.6144 12.935339,2.5938 21.125,2.5938 8.189661,0 15.603324,-0.9794 21.125,-2.5938 2.760838,-0.8071 5.046793,-1.7743 6.75,-2.9062 1.703207,-1.1319 2.9147,-2.4883 3.125,-4.125 l -2,-0.25 c -0.101283,0.78827 -0.774018,1.7587 -2.21875,2.7188 -1.444732,0.96 -3.58648,1.8554 -6.21875,2.625 -5.26454,1.5391 -12.532398,2.5312 -20.5625,2.5312 -8.030102,0 -15.29796,-0.9921 -20.5625,-2.5312 -2.63227,-0.7696 -4.774018,-1.665 -6.21875,-2.625 C 21.774018,1000.2587 21.101283,999.28827 21,998.5 z"/><path style="font-size:medium;font-style:normal;font-variant:normal;font-weight:normal;font-stretch:normal;text-indent:0;text-align:start;text-decoration:none;line-height:normal;letter-spacing:normal;word-spacing:normal;text-transform:none;direction:ltr;block-progression:tb;writing-mode:lr-tb;text-anchor:start;baseline-shift:baseline;opacity:1;color:#000000;fill:#000000;fill-opacity:1;stroke:none;stroke-width:1.99999975999999990;marker:none;visibility:visible;display:inline;overflow:visible;enable-background:accumulate;font-family:Sans;-inkscape-font-specification:Sans" d="m 21,1003.5 -2,0.25 c 0.2103,1.6367 1.421793,2.9931 3.125,4.125 1.703207,1.1319 3.989162,2.0991 6.75,2.9062 5.521676,1.6144 12.935339,2.5938 21.125,2.5938 8.189661,0 15.603324,-0.9794 21.125,-2.5938 2.760838,-0.8071 5.046793,-1.7743 6.75,-2.9062 1.703207,-1.1319 2.9147,-2.4883 3.125,-4.125 l -2,-0.25 c -0.101283,0.7883 -0.774018,1.7587 -2.21875,2.7188 -1.444732,0.96 -3.58648,1.8554 -6.21875,2.625 -5.26454,1.5391 -12.532398,2.5312 -20.5625,2.5312 -8.030102,0 -15.29796,-0.9921 -20.5625,-2.5312 -2.63227,-0.7696 -4.774018,-1.665 -6.21875,-2.625 C 21.774018,1005.2587 21.101283,1004.2883 21,1003.5 z"/><path style="font-size:medium;font-style:normal;font-variant:normal;font-weight:normal;font-stretch:normal;text-indent:0;text-align:start;text-decoration:none;line-height:normal;letter-spacing:normal;word-spacing:normal;text-transform:none;direction:ltr;block-progression:tb;writing-mode:lr-tb;text-anchor:start;baseline-shift:baseline;opacity:1;color:#000000;fill:#000000;fill-opacity:1;stroke:none;stroke-width:1.99999975999999990;marker:none;visibility:visible;display:inline;overflow:visible;enable-background:accumulate;font-family:Sans;-inkscape-font-specification:Sans" d="m 67,1010.375 0,21.375 2,0 0,-21.375 -2,0 z"/><path style="font-size:medium;font-style:normal;font-variant:normal;font-weight:normal;font-stretch:normal;text-indent:0;text-align:start;text-decoration:none;line-height:normal;letter-spacing:normal;word-spacing:normal;text-transform:none;direction:ltr;block-progression:tb;writing-mode:lr-tb;text-anchor:start;baseline-shift:baseline;opacity:1;color:#000000;fill:#000000;fill-opacity:1;stroke:none;stroke-width:1.99999975999999990;marker:none;visibility:visible;display:inline;overflow:visible;enable-background:accumulate;font-family:Sans;-inkscape-font-specification:Sans" d="m 50,988.375 c -4.965064,0 -9.637492,0.33208 -13.78125,0.96875 l 0.28125,2 c 4.030902,-0.61933 8.63083,-0.96875 13.5,-0.96875 4.86917,0 9.469098,0.34942 13.5,0.96875 l 0.28125,-2 C 59.637492,988.70708 54.965064,988.375 50,988.375 z"/></g><text x="0" y="115" fill="#000000" font-size="5px" font-weight="bold" font-family="'Helvetica Neue', Helvetica, Arial-Unicode, Arial, Sans-serif">Created by throwaway icons</text><text x="0" y="120" fill="#000000" font-size="5px" font-weight="bold" font-family="'Helvetica Neue', Helvetica, Arial-Unicode, Arial, Sans-serif">from the Noun Project</text></svg>